<svg xmlns="http://www.w3.org/2000/svg" viewBox="0 0 833 791">
  <path fillRule="evenodd"
    d="
    M 6 6 L 7 5 L 10 5 L 11 6 L 20 6 L 21 7 L 25 7 L 26 8 L 32 8 L 33 9 L 40 9 L 41 10 L 45 10 L 46 11 L 51 11 L 52 12 L 56 12 L 57 13 L 61 13 L 62 14 L 65 14 L 66 15 L 71 15 L 72 16 L 74 16 L 75 17 L 80 17 L 81 18 L 84 18 L 85 19 L 87 19 L 88 20 L 92 20 L 93 21 L 96 21 L 97 22 L 100 22 L 101 23 L 104 23 L 105 24 L 107 24 L 108 25 L 111 25 L 112 26 L 113 26 L 114 27 L 117 27 L 118 28 L 120 28 L 121 29 L 124 29 L 125 30 L 126 30 L 127 31 L 130 31 L 131 32 L 133 32 L 134 33 L 136 33 L 137 34 L 139 34 L 140 35 L 141 35 L 142 36 L 144 36 L 145 37 L 146 37 L 147 38 L 149 38 L 150 39 L 151 39 L 152 40 L 154 40 L 155 41 L 156 41 L 157 42 L 159 42 L 160 43 L 161 43 L 162 44 L 163 44 L 164 45 L 165 45 L 166 46 L 167 46 L 168 47 L 169 47 L 170 48 L 171 48 L 172 49 L 173 49 L 174 50 L 175 50 L 176 51 L 177 51 L 178 52 L 179 52 L 180 53 L 181 53 L 183 55 L 184 55 L 185 56 L 186 56 L 187 57 L 188 57 L 190 59 L 191 59 L 193 61 L 192 62 L 193 61 L 194 61 L 196 63 L 197 63 L 199 65 L 200 65 L 203 68 L 204 68 L 207 71 L 208 71 L 212 75 L 213 75 L 224 86 L 224 87 L 229 92 L 229 93 L 232 96 L 232 97 L 234 99 L 234 100 L 236 102 L 236 103 L 238 105 L 238 106 L 240 108 L 240 109 L 241 110 L 241 111 L 243 113 L 243 114 L 244 115 L 244 116 L 245 117 L 245 118 L 246 119 L 246 120 L 247 121 L 247 122 L 248 123 L 248 124 L 249 125 L 249 126 L 250 127 L 250 128 L 251 129 L 251 130 L 252 131 L 252 132 L 253 133 L 253 134 L 254 135 L 254 137 L 256 139 L 258 139 L 265 132 L 266 132 L 270 128 L 271 128 L 274 125 L 275 125 L 278 122 L 279 122 L 281 120 L 282 120 L 285 117 L 286 117 L 288 115 L 289 115 L 290 114 L 291 114 L 293 112 L 294 112 L 295 111 L 296 111 L 297 110 L 298 110 L 300 108 L 301 108 L 302 107 L 303 107 L 304 106 L 305 106 L 306 105 L 307 105 L 308 104 L 309 104 L 311 102 L 313 102 L 315 100 L 317 100 L 318 99 L 319 99 L 320 98 L 322 98 L 323 97 L 324 97 L 325 96 L 326 96 L 327 95 L 329 95 L 330 94 L 331 94 L 332 93 L 334 93 L 335 92 L 337 92 L 338 91 L 340 91 L 341 90 L 343 90 L 344 89 L 346 89 L 347 88 L 350 88 L 351 87 L 353 87 L 354 86 L 357 86 L 358 85 L 360 85 L 361 84 L 365 84 L 366 83 L 370 83 L 371 82 L 374 82 L 375 81 L 379 81 L 380 80 L 387 80 L 388 79 L 396 79 L 397 78 L 404 78 L 405 77 L 447 77 L 448 78 L 457 78 L 458 79 L 465 79 L 466 80 L 471 80 L 472 81 L 477 81 L 478 82 L 482 82 L 483 83 L 486 83 L 487 84 L 491 84 L 492 85 L 495 85 L 496 86 L 498 86 L 499 87 L 501 87 L 502 88 L 505 88 L 506 89 L 508 89 L 509 90 L 511 90 L 512 91 L 514 91 L 515 92 L 517 92 L 518 93 L 520 93 L 521 94 L 522 94 L 523 95 L 525 95 L 526 96 L 527 96 L 528 97 L 530 97 L 531 98 L 532 98 L 533 99 L 534 99 L 535 100 L 537 100 L 538 101 L 539 101 L 540 102 L 541 102 L 542 103 L 543 103 L 544 104 L 545 104 L 546 105 L 547 105 L 548 106 L 549 106 L 551 108 L 552 108 L 553 109 L 554 109 L 556 111 L 557 111 L 558 112 L 559 112 L 560 113 L 561 113 L 562 114 L 563 114 L 565 116 L 566 116 L 568 118 L 569 118 L 571 120 L 572 120 L 574 122 L 575 122 L 578 125 L 579 125 L 581 127 L 582 127 L 585 130 L 586 130 L 591 135 L 592 135 L 598 141 L 599 141 L 613 155 L 613 156 L 620 163 L 620 164 L 624 168 L 624 169 L 627 172 L 627 173 L 630 176 L 630 177 L 633 180 L 633 181 L 635 183 L 635 184 L 637 186 L 637 187 L 638 188 L 638 189 L 640 191 L 640 192 L 642 194 L 642 195 L 643 196 L 643 197 L 644 198 L 644 199 L 646 201 L 646 202 L 647 203 L 647 204 L 649 206 L 649 207 L 650 208 L 650 209 L 651 210 L 651 211 L 652 212 L 652 213 L 653 214 L 653 215 L 654 216 L 654 217 L 655 218 L 655 219 L 656 220 L 656 221 L 657 222 L 657 223 L 658 224 L 658 225 L 659 226 L 659 228 L 661 230 L 661 232 L 662 233 L 662 234 L 663 235 L 663 237 L 665 239 L 665 241 L 666 242 L 666 244 L 667 245 L 667 246 L 668 247 L 668 249 L 669 250 L 669 251 L 670 252 L 670 254 L 671 255 L 671 257 L 672 258 L 672 260 L 673 261 L 673 263 L 674 264 L 674 266 L 675 267 L 675 269 L 676 270 L 676 272 L 677 273 L 677 275 L 678 276 L 678 279 L 679 280 L 679 283 L 680 284 L 680 286 L 681 287 L 681 290 L 682 291 L 682 295 L 683 296 L 683 299 L 684 300 L 684 303 L 685 304 L 685 307 L 686 308 L 686 312 L 687 313 L 687 317 L 688 318 L 688 323 L 689 324 L 689 329 L 690 330 L 690 336 L 691 337 L 691 342 L 692 343 L 692 349 L 693 350 L 693 357 L 694 358 L 694 367 L 695 368 L 695 380 L 696 381 L 696 399 L 697 400 L 697 448 L 696 449 L 696 464 L 695 465 L 695 479 L 694 480 L 694 490 L 693 491 L 693 501 L 692 502 L 692 506 L 691 507 L 692 508 L 691 509 L 588 509 L 587 508 L 588 507 L 588 503 L 589 502 L 589 494 L 590 493 L 590 483 L 591 482 L 591 470 L 592 469 L 592 451 L 593 450 L 592 449 L 593 448 L 593 399 L 592 398 L 592 380 L 591 379 L 591 369 L 590 368 L 590 359 L 589 358 L 589 351 L 588 350 L 588 344 L 587 343 L 587 337 L 586 336 L 586 331 L 585 330 L 585 326 L 584 325 L 584 321 L 583 320 L 583 315 L 582 314 L 582 311 L 581 310 L 581 307 L 580 306 L 580 303 L 579 302 L 579 299 L 578 298 L 578 295 L 577 294 L 577 291 L 576 290 L 576 287 L 575 286 L 575 284 L 574 283 L 574 281 L 573 280 L 573 277 L 572 276 L 572 274 L 571 273 L 571 271 L 570 270 L 570 268 L 569 267 L 569 265 L 568 264 L 568 262 L 567 261 L 567 259 L 566 258 L 566 256 L 565 255 L 565 254 L 564 253 L 564 251 L 563 250 L 563 249 L 562 248 L 562 246 L 561 245 L 561 243 L 560 242 L 560 241 L 559 241 L 558 240 L 558 239 L 558 240 L 555 243 L 555 244 L 554 245 L 554 246 L 553 247 L 553 248 L 551 250 L 551 251 L 549 253 L 549 254 L 547 256 L 547 257 L 546 258 L 546 259 L 544 261 L 544 262 L 542 264 L 542 265 L 540 267 L 540 268 L 539 269 L 539 270 L 537 272 L 537 273 L 535 275 L 535 276 L 534 277 L 534 278 L 533 279 L 533 280 L 530 283 L 530 284 L 529 285 L 529 286 L 527 288 L 527 289 L 525 291 L 525 292 L 524 293 L 524 294 L 522 296 L 522 297 L 520 299 L 520 300 L 519 301 L 519 302 L 517 304 L 517 305 L 515 307 L 515 308 L 514 309 L 514 310 L 512 312 L 512 313 L 510 315 L 510 316 L 508 318 L 508 319 L 506 321 L 506 322 L 504 324 L 504 325 L 503 326 L 503 327 L 501 329 L 501 330 L 499 332 L 499 333 L 497 335 L 497 336 L 496 337 L 496 338 L 494 340 L 494 341 L 492 343 L 492 344 L 490 346 L 490 347 L 489 348 L 489 349 L 487 351 L 487 352 L 485 354 L 485 355 L 483 357 L 483 358 L 482 359 L 482 360 L 480 362 L 480 363 L 478 365 L 478 366 L 476 368 L 476 369 L 474 371 L 474 372 L 473 373 L 473 374 L 472 375 L 472 376 L 470 378 L 470 379 L 468 381 L 468 382 L 466 384 L 466 385 L 464 387 L 464 388 L 463 389 L 463 390 L 461 392 L 461 393 L 459 395 L 459 396 L 458 397 L 458 398 L 456 400 L 456 401 L 454 403 L 454 404 L 453 405 L 453 406 L 451 408 L 451 409 L 449 411 L 449 412 L 447 414 L 447 415 L 446 416 L 446 417 L 444 419 L 444 420 L 442 422 L 442 423 L 440 425 L 440 426 L 439 427 L 439 428 L 437 430 L 437 431 L 435 433 L 435 434 L 434 435 L 434 436 L 432 438 L 432 439 L 430 441 L 430 442 L 428 444 L 428 445 L 427 446 L 427 447 L 425 449 L 425 450 L 423 452 L 423 453 L 422 454 L 422 455 L 420 457 L 420 458 L 418 460 L 418 461 L 417 462 L 417 463 L 415 465 L 415 466 L 413 468 L 413 469 L 412 470 L 412 471 L 409 474 L 409 475 L 408 476 L 408 477 L 406 479 L 406 480 L 404 482 L 404 483 L 402 485 L 402 486 L 401 487 L 401 488 L 399 490 L 399 491 L 398 492 L 398 493 L 396 495 L 396 496 L 394 498 L 394 499 L 392 501 L 392 502 L 391 503 L 391 504 L 389 506 L 389 507 L 387 509 L 387 510 L 385 512 L 385 513 L 384 514 L 384 515 L 382 517 L 382 518 L 380 520 L 380 521 L 379 522 L 379 523 L 377 525 L 377 526 L 376 527 L 376 528 L 374 530 L 374 531 L 372 533 L 371 532 L 372 533 L 372 534 L 371 535 L 371 536 L 369 538 L 369 539 L 367 541 L 367 542 L 365 544 L 365 545 L 363 547 L 363 548 L 362 549 L 362 550 L 360 552 L 360 553 L 358 555 L 358 556 L 357 557 L 357 558 L 355 560 L 355 561 L 353 563 L 353 564 L 351 566 L 351 567 L 350 568 L 350 569 L 347 572 L 347 573 L 346 574 L 346 575 L 345 576 L 345 577 L 343 579 L 343 580 L 341 582 L 341 583 L 339 585 L 339 586 L 338 587 L 338 588 L 336 590 L 336 591 L 334 593 L 334 594 L 332 596 L 332 597 L 330 599 L 330 600 L 329 601 L 329 602 L 327 604 L 327 605 L 325 607 L 325 608 L 324 609 L 324 610 L 322 612 L 322 613 L 320 615 L 320 616 L 318 618 L 318 619 L 317 620 L 317 621 L 315 623 L 315 624 L 313 626 L 313 627 L 311 629 L 311 630 L 310 631 L 310 632 L 308 634 L 308 635 L 307 636 L 306 636 L 306 640 L 308 642 L 308 643 L 310 645 L 310 646 L 312 648 L 312 649 L 314 651 L 314 652 L 317 655 L 317 656 L 320 659 L 320 660 L 324 664 L 324 665 L 330 671 L 330 672 L 331 672 L 333 674 L 333 675 L 338 680 L 339 680 L 347 688 L 348 688 L 352 692 L 353 692 L 355 694 L 356 694 L 358 696 L 359 696 L 361 698 L 362 698 L 363 699 L 364 699 L 365 700 L 366 700 L 368 702 L 369 702 L 370 703 L 371 703 L 372 704 L 374 704 L 375 705 L 376 705 L 377 706 L 378 706 L 379 707 L 381 707 L 382 708 L 383 708 L 384 709 L 386 709 L 387 710 L 389 710 L 390 711 L 393 711 L 394 712 L 398 712 L 399 713 L 404 713 L 405 714 L 410 714 L 411 715 L 432 715 L 433 714 L 440 714 L 441 713 L 446 713 L 447 712 L 451 712 L 452 711 L 455 711 L 456 710 L 459 710 L 460 709 L 461 709 L 462 708 L 464 708 L 465 707 L 466 707 L 466 554 L 467 553 L 534 553 L 536 555 L 535 556 L 535 561 L 536 562 L 535 563 L 535 577 L 536 578 L 536 579 L 538 579 L 538 578 L 549 567 L 550 567 L 554 563 L 555 563 L 556 562 L 557 562 L 558 561 L 559 561 L 561 559 L 562 559 L 563 558 L 564 558 L 565 557 L 566 557 L 567 556 L 568 556 L 569 555 L 571 555 L 572 554 L 574 554 L 575 553 L 577 553 L 578 552 L 583 552 L 584 551 L 588 551 L 589 550 L 602 550 L 603 551 L 609 551 L 610 552 L 614 552 L 615 553 L 618 553 L 619 554 L 620 554 L 621 555 L 623 555 L 624 556 L 625 556 L 626 557 L 627 557 L 628 558 L 629 558 L 630 559 L 631 559 L 633 561 L 634 561 L 636 563 L 637 563 L 639 565 L 640 565 L 645 570 L 646 570 L 654 578 L 654 579 L 659 584 L 670 573 L 671 573 L 675 569 L 676 569 L 679 566 L 680 566 L 682 564 L 683 564 L 684 563 L 685 563 L 687 561 L 688 561 L 689 560 L 690 560 L 691 559 L 692 559 L 693 558 L 695 558 L 696 557 L 697 557 L 698 556 L 700 556 L 701 555 L 703 555 L 704 554 L 707 554 L 708 553 L 712 553 L 713 552 L 718 552 L 719 551 L 726 551 L 727 550 L 738 550 L 739 551 L 747 551 L 748 552 L 753 552 L 754 553 L 758 553 L 759 554 L 761 554 L 762 555 L 764 555 L 765 556 L 766 556 L 767 557 L 768 557 L 769 558 L 771 558 L 773 560 L 774 560 L 775 561 L 776 561 L 777 562 L 778 562 L 779 563 L 780 563 L 783 566 L 784 566 L 786 568 L 787 568 L 800 581 L 800 582 L 802 584 L 802 585 L 804 587 L 804 588 L 806 590 L 806 591 L 807 592 L 807 593 L 808 594 L 808 595 L 809 596 L 809 597 L 810 598 L 810 600 L 811 601 L 811 602 L 812 603 L 812 605 L 813 606 L 813 608 L 814 609 L 814 613 L 815 614 L 815 617 L 816 618 L 816 623 L 817 624 L 817 631 L 818 632 L 818 778 L 817 779 L 754 779 L 752 777 L 752 638 L 751 637 L 751 634 L 750 633 L 750 631 L 749 630 L 749 629 L 748 628 L 748 626 L 745 623 L 745 622 L 739 616 L 738 616 L 736 614 L 735 614 L 734 613 L 733 613 L 732 612 L 731 612 L 730 611 L 728 611 L 727 610 L 724 610 L 723 609 L 718 609 L 717 608 L 715 608 L 714 609 L 703 609 L 702 610 L 700 610 L 699 611 L 697 611 L 696 612 L 695 612 L 694 613 L 693 613 L 692 614 L 691 614 L 689 616 L 688 616 L 683 621 L 683 622 L 681 624 L 681 625 L 679 627 L 679 629 L 678 630 L 678 632 L 677 633 L 677 636 L 676 637 L 676 778 L 675 779 L 611 779 L 609 777 L 609 773 L 610 772 L 609 771 L 609 692 L 610 691 L 609 690 L 609 637 L 608 636 L 608 633 L 607 632 L 607 631 L 606 630 L 606 628 L 605 627 L 605 626 L 603 624 L 603 623 L 595 615 L 594 615 L 592 613 L 591 613 L 590 612 L 588 612 L 587 611 L 586 611 L 585 610 L 582 610 L 581 609 L 563 609 L 562 610 L 559 610 L 558 611 L 556 611 L 555 612 L 554 612 L 552 614 L 551 614 L 550 615 L 549 615 L 542 622 L 542 623 L 540 625 L 540 626 L 539 627 L 539 628 L 538 629 L 538 631 L 537 632 L 537 634 L 536 635 L 536 655 L 535 656 L 535 657 L 536 658 L 536 716 L 535 717 L 536 718 L 535 719 L 535 721 L 536 722 L 536 735 L 535 736 L 536 737 L 536 755 L 535 756 L 535 758 L 533 760 L 532 760 L 531 761 L 530 761 L 529 762 L 528 762 L 527 763 L 526 763 L 525 764 L 523 764 L 521 766 L 519 766 L 518 767 L 517 767 L 516 768 L 515 768 L 514 769 L 512 769 L 511 770 L 510 770 L 509 771 L 507 771 L 506 772 L 504 772 L 503 773 L 501 773 L 500 774 L 498 774 L 497 775 L 494 775 L 493 776 L 490 776 L 489 777 L 487 777 L 486 778 L 483 778 L 482 779 L 478 779 L 477 780 L 473 780 L 472 781 L 466 781 L 465 782 L 460 782 L 459 783 L 451 783 L 450 784 L 439 784 L 438 785 L 408 785 L 407 784 L 397 784 L 396 783 L 386 783 L 385 782 L 380 782 L 379 781 L 374 781 L 373 780 L 369 780 L 368 779 L 363 779 L 362 778 L 359 778 L 358 777 L 356 777 L 355 776 L 351 776 L 350 775 L 347 775 L 346 774 L 344 774 L 343 773 L 341 773 L 340 772 L 339 772 L 338 771 L 335 771 L 334 770 L 332 770 L 331 769 L 329 769 L 328 768 L 326 768 L 325 767 L 324 767 L 323 766 L 321 766 L 320 765 L 319 765 L 318 764 L 316 764 L 315 763 L 314 763 L 313 762 L 312 762 L 311 761 L 309 761 L 308 760 L 307 760 L 306 759 L 305 759 L 304 758 L 303 758 L 302 757 L 301 757 L 300 756 L 299 756 L 298 755 L 297 755 L 295 753 L 294 753 L 293 752 L 292 752 L 291 751 L 290 751 L 289 750 L 288 750 L 287 749 L 286 749 L 284 747 L 283 747 L 281 745 L 280 745 L 278 743 L 277 743 L 275 741 L 274 741 L 272 739 L 271 739 L 268 736 L 267 736 L 265 734 L 264 734 L 259 729 L 258 729 L 254 725 L 253 725 L 231 703 L 231 702 L 225 696 L 225 695 L 222 692 L 222 691 L 218 687 L 218 686 L 215 683 L 215 682 L 213 680 L 213 679 L 211 677 L 211 676 L 209 674 L 209 673 L 207 671 L 207 670 L 206 669 L 206 668 L 204 666 L 204 665 L 203 664 L 203 663 L 202 662 L 202 661 L 201 660 L 201 659 L 199 657 L 199 656 L 198 655 L 198 654 L 197 653 L 197 652 L 196 651 L 196 650 L 195 649 L 195 648 L 194 647 L 194 646 L 193 645 L 193 644 L 192 643 L 192 642 L 191 641 L 191 640 L 190 639 L 190 638 L 189 637 L 189 636 L 188 635 L 188 633 L 187 632 L 187 631 L 186 630 L 186 629 L 185 628 L 185 626 L 184 625 L 184 624 L 183 623 L 183 621 L 182 620 L 182 618 L 181 617 L 181 615 L 180 614 L 180 613 L 179 612 L 179 609 L 178 608 L 178 607 L 177 606 L 177 603 L 176 602 L 176 600 L 175 599 L 175 597 L 174 596 L 174 594 L 173 593 L 173 590 L 172 589 L 172 587 L 171 586 L 171 583 L 170 582 L 170 579 L 169 578 L 169 575 L 168 574 L 168 571 L 167 570 L 167 566 L 166 565 L 166 561 L 165 560 L 165 556 L 164 555 L 164 551 L 163 550 L 163 544 L 162 543 L 162 539 L 161 538 L 161 532 L 160 531 L 160 525 L 159 524 L 159 514 L 158 513 L 158 503 L 157 502 L 157 488 L 156 487 L 156 463 L 155 462 L 155 460 L 156 459 L 156 457 L 155 456 L 156 455 L 155 454 L 155 434 L 156 433 L 156 400 L 157 399 L 157 382 L 158 381 L 158 370 L 159 369 L 159 360 L 160 359 L 160 351 L 161 350 L 161 343 L 162 342 L 162 336 L 163 335 L 163 329 L 164 328 L 164 324 L 165 323 L 165 318 L 166 317 L 166 313 L 167 312 L 167 307 L 168 306 L 168 303 L 169 302 L 169 297 L 170 296 L 170 294 L 171 293 L 171 287 L 172 286 L 172 284 L 173 283 L 173 279 L 174 278 L 174 276 L 175 275 L 176 275 L 175 274 L 175 273 L 172 273 L 171 272 L 166 272 L 165 271 L 162 271 L 161 270 L 158 270 L 157 269 L 154 269 L 153 268 L 149 268 L 148 267 L 145 267 L 144 266 L 142 266 L 141 265 L 139 265 L 138 264 L 135 264 L 134 263 L 132 263 L 131 262 L 129 262 L 128 261 L 127 261 L 126 260 L 124 260 L 123 259 L 121 259 L 120 258 L 119 258 L 118 257 L 117 257 L 116 256 L 114 256 L 113 255 L 112 255 L 111 254 L 110 254 L 109 253 L 108 253 L 107 252 L 106 252 L 105 251 L 104 251 L 102 249 L 101 249 L 100 248 L 99 248 L 98 247 L 97 247 L 95 245 L 94 245 L 92 243 L 91 243 L 89 241 L 88 241 L 85 238 L 84 238 L 79 233 L 78 233 L 66 221 L 66 220 L 61 215 L 61 214 L 58 211 L 58 210 L 55 207 L 55 206 L 54 205 L 54 204 L 52 202 L 52 201 L 50 199 L 50 198 L 49 197 L 49 196 L 48 195 L 48 194 L 46 192 L 46 191 L 45 190 L 45 189 L 44 188 L 44 186 L 43 185 L 43 184 L 42 183 L 42 182 L 41 181 L 41 179 L 40 178 L 40 177 L 39 176 L 39 174 L 38 173 L 38 171 L 37 170 L 37 168 L 36 167 L 36 165 L 35 164 L 35 162 L 34 161 L 34 159 L 33 158 L 33 155 L 32 154 L 32 152 L 31 151 L 31 148 L 30 147 L 30 144 L 29 143 L 29 140 L 28 139 L 28 136 L 27 135 L 27 132 L 26 131 L 26 127 L 25 126 L 25 122 L 24 121 L 24 117 L 23 116 L 23 111 L 22 110 L 22 106 L 21 105 L 21 99 L 20 98 L 20 93 L 21 92 L 22 93 L 21 92 L 20 93 L 19 92 L 19 84 L 18 83 L 18 79 L 17 78 L 17 71 L 16 70 L 16 65 L 15 64 L 15 57 L 14 56 L 14 50 L 13 49 L 13 43 L 12 42 L 12 37 L 11 36 L 11 30 L 10 29 L 10 24 L 9 23 L 9 18 L 8 17 L 8 12 L 7 11 L 7 7 Z

    M 520 190 C 450 140 333.221 170.928 283.692 256.056 C 255.402 304.679 242.836 351.109 240.864 436.459 C 239.345 502.206 252.052 577.042 267.052 582.042 L 520 190 Z

    M 102 110 C 132 130 162 160 197 210 C 217 240 227 265 232 280 L 242 260 C 234 240 207 200 172 160 C 142 130 117 115 102 110 Z
    " />
</svg>
